<?xml version="1.0" encoding="UTF-8"?>
<!DOCTYPE svg PUBLIC "-//W3C//DTD SVG 1.1//EN" "http://www.w3.org/Graphics/SVG/1.1/DTD/svg11.dtd">
<!-- Creator: CorelDRAW 2020 (64-Bit) -->
<svg xmlns="http://www.w3.org/2000/svg" xml:space="preserve" width="100mm" height="100mm" version="1.1" style="shape-rendering:geometricPrecision; text-rendering:geometricPrecision; image-rendering:optimizeQuality; fill-rule:evenodd; clip-rule:evenodd"
viewBox="0 0 10000 10000"
 xmlns:xlink="http://www.w3.org/1999/xlink"
 xmlns:xodm="http://www.corel.com/coreldraw/odm/2003">
 <defs>
  <style type="text/css">
   <![CDATA[
    .fil3 {fill:#FEFEFE;fill-rule:nonzero}
    .fil2 {fill:#009B8B;fill-rule:nonzero}
    .fil1 {fill:#39BDB0;fill-rule:nonzero}
    .fil0 {fill:#A1DED7;fill-rule:nonzero}
   ]]>
  </style>
 </defs>
 <g id="Capa_x0020_1">
  <metadata id="CorelCorpID_0Corel-Layer"/>
  <path class="fil0" d="M1481.25 2373.11c0,-586.57 475.52,-1062.09 1062.09,-1062.09l470.76 0c-12.12,-260.65 -225.34,-468.64 -489.18,-468.64l-1020.96 0c-271.43,0 -491.44,220.03 -491.44,491.32l0 1021.16c0,263.65 208.1,477.08 468.73,489.21l0 -470.96z"/>
  <path class="fil1" d="M2547.71 4429.28c0,-936.8 759.43,-1696.23 1696.34,-1696.23l1180.47 0 0 -162.34c0,-481.54 -390.4,-871.82 -872.02,-871.82l-1811.64 0c-481.43,0 -871.74,390.28 -871.74,871.82l0 1811.65c0,415.1 290.12,761.65 678.59,849.61l0 -802.69z"/>
  <path class="fil2" d="M8979.89 7706.79c0,805.46 -653.06,1458.44 -1458.47,1458.44l-3030.41 0c-805.49,0 -1458.47,-652.98 -1458.47,-1458.44l0 -3030.44c0,-805.49 652.98,-1458.47 1458.47,-1458.47l3030.41 0c805.41,0 1458.47,652.98 1458.47,1458.47l0 3030.44z"/>
  <path class="fil3" d="M6297.22 6167.51c0,165.03 -133.92,298.94 -299.06,298.94 -165.03,0 -298.83,-133.91 -298.83,-298.94 0,-165.14 133.8,-299.06 298.83,-299.06 165.14,0 299.06,133.92 299.06,299.06z"/>
  <g>
   <path class="fil3" d="M3955.36 4330.39c-56.44,-57.15 -55.88,-149.25 1.27,-205.69 57.15,-56.44 149.25,-55.88 205.69,1.27l-206.96 204.42zm1939.32 1963.38l-1939.32 -1963.38 206.96 -204.42 1939.32 1963.38 -103.48 247.66 -103.48 -43.24zm206.96 -204.42c56.44,57.15 55.88,149.25 -1.27,205.69 -57.15,56.44 -149.25,55.88 -205.69,-1.27l206.96 -204.42zm1339.1 247.66l-1442.58 0 0 -290.9 1442.58 0 0 290.9zm0 -290.9c80.32,0 145.45,65.13 145.45,145.45 0,80.32 -65.13,145.45 -145.45,145.45l0 -290.9z"/>
  </g>
  <g>
   <path class="fil3" d="M5963.87 6157.28c18.93,-18.93 49.64,-18.94 68.57,-0.01 18.93,18.93 18.94,49.64 0.01,68.57l-68.58 -68.56zm-1361.49 1361.6l1361.49 -1361.6 68.58 68.56 -1361.49 1361.6 -68.58 -68.56zm68.58 68.56c-18.93,18.93 -49.64,18.94 -68.57,0.01 -18.93,-18.93 -18.94,-49.64 -0.01,-68.57l68.58 68.56z"/>
  </g>
 </g>
</svg>
