<?xml version="1.0" encoding="UTF-8"?>
<!DOCTYPE svg PUBLIC "-//W3C//DTD SVG 1.1//EN" "http://www.w3.org/Graphics/SVG/1.1/DTD/svg11.dtd">
<!-- Creator: CorelDRAW 2020 (64-Bit) -->
<svg xmlns="http://www.w3.org/2000/svg" xml:space="preserve" width="79.6737mm" height="83.2285mm" version="1.1" style="shape-rendering:geometricPrecision; text-rendering:geometricPrecision; image-rendering:optimizeQuality; fill-rule:evenodd; clip-rule:evenodd"
viewBox="0 0 7959.79 8314.93"
 xmlns:xlink="http://www.w3.org/1999/xlink"
 xmlns:xodm="http://www.corel.com/coreldraw/odm/2003">
 <defs>
  <style type="text/css">
   <![CDATA[
    .fil1 {fill:#006A6A;fill-rule:nonzero}
    .fil0 {fill:#E7F7F6;fill-rule:nonzero}
   ]]>
  </style>
 </defs>
 <g id="Capa_x0020_1">
  <metadata id="CorelCorpID_0Corel-Layer"/>
  <path class="fil0" d="M468.28 1529.27c0,-586.01 475.07,-1061.08 1061.08,-1061.08l470.31 0c-12.11,-260.4 -225.13,-468.19 -488.71,-468.19l-1019.99 0c-271.17,0 -490.97,219.82 -490.97,490.85l0 1020.19c0,263.4 207.9,476.63 468.28,488.74l0 -470.51z"/>
  <path class="fil0" d="M1533.73 3583.49c0,-935.91 758.71,-1694.62 1694.73,-1694.62l1179.35 0 0 -162.19c0,-481.08 -390.03,-870.99 -871.19,-870.99l-1809.92 0c-480.97,0 -870.91,389.91 -870.91,870.99l0 1809.93c0,414.7 289.84,760.93 677.94,848.8l0 -801.93z"/>
  <path class="fil0" d="M7959.79 6857.88c0,804.69 -652.44,1457.05 -1457.08,1457.05l-3027.53 0c-804.72,0 -1457.08,-652.36 -1457.08,-1457.05l0 -3027.56c0,-804.72 652.36,-1457.08 1457.08,-1457.08l3027.53 0c804.64,0 1457.08,652.36 1457.08,1457.08l0 3027.56z"/>
  <g id="_3106629353328">
   <path class="fil1" d="M5535.85 5620.66c0,164.87 -133.79,298.66 -298.78,298.66 -164.87,0 -298.55,-133.78 -298.55,-298.66 0,-164.98 133.67,-298.78 298.55,-298.78 164.98,0 298.78,133.79 298.78,298.78z"/>
   <g>
    <path class="fil1" d="M3196.22 3785.28c-56.39,-57.1 -55.83,-149.11 1.27,-205.49 57.1,-56.39 149.11,-55.83 205.49,1.27l-206.76 204.23zm1937.47 1961.51l-1937.47 -1961.51 206.76 -204.23 1937.47 1961.51 -103.38 247.42 -103.38 -43.2zm206.76 -204.23c56.39,57.1 55.83,149.11 -1.27,205.49 -57.1,56.39 -149.11,55.83 -205.49,-1.27l206.76 -204.23zm1337.83 247.42l-1441.21 0 0 -290.62 1441.21 0 0 290.62zm0 -290.62c80.24,0 145.31,65.07 145.31,145.31 0,80.24 -65.07,145.31 -145.31,145.31l0 -290.62z"/>
   </g>
   <g>
    <path class="fil1" d="M5202.81 5610.44c18.91,-18.91 49.59,-18.92 68.5,-0.01 18.91,18.91 18.92,49.59 0.01,68.5l-68.51 -68.49zm-1360.19 1360.3l1360.19 -1360.3 68.51 68.49 -1360.19 1360.3 -68.51 -68.49zm68.51 68.49c-18.91,18.91 -49.59,18.92 -68.5,0.01 -18.91,-18.91 -18.92,-49.59 -0.01,-68.5l68.51 68.49z"/>
   </g>
  </g>
 </g>
</svg>
